<?xml version="1.0" standalone="no"?><!DOCTYPE svg PUBLIC "-//W3C//DTD SVG 1.1//EN" "http://www.w3.org/Graphics/SVG/1.1/DTD/svg11.dtd"><svg t="1637025037768" class="icon" viewBox="0 0 1024 1024" version="1.1" xmlns="http://www.w3.org/2000/svg" p-id="3531" data-spm-anchor-id="a313x.7781069.0.i1" xmlns:xlink="http://www.w3.org/1999/xlink" width="200" height="200"><defs><style type="text/css"></style></defs><path d="M660.414125 177.041969a196.507166 196.507166 0 0 1 197.277783 197.263512c0 61.49233-33.065149 121.400615-88.478172 160.259657L175.211245 951.225976a65.887697 65.887697 0 0 1-91.774698-91.774698l416.70365-593.973949c38.844772-55.384482 98.767327-88.478172 160.259657-88.478173m0-60.793066c-84.082805 0-161.729536 45.494905-210.021493 114.322361L33.731794 824.51667a126.680764 126.680764 0 0 0 176.456871 176.485413l593.973949-416.70365c68.841726-48.291957 114.322361-125.938689 114.322361-210.021494A257.300233 257.300233 0 0 0 660.414125 116.248902z" fill="" p-id="3532"></path><path d="M810.884101 232.754676a30.396533 30.396533 0 0 1-21.491634-51.845355l107.486709-107.472438a30.396533 30.396533 0 0 1 42.983267 42.983267l-107.486709 107.429626a30.296639 30.296639 0 0 1-21.491633 8.9049z" fill="" p-id="3533"></path><path d="M982.84571 232.754676h-171.961609a30.396533 30.396533 0 1 1 0-60.793067h171.961609a30.396533 30.396533 0 0 1 0 60.793067z" fill="" p-id="3534"></path><path d="M810.884101 232.754676a30.382263 30.382263 0 0 1-30.396534-30.396534V30.396533a30.396533 30.396533 0 0 1 60.793067 0v171.918797a30.382263 30.382263 0 0 1-30.396533 30.439346zM595.939225 404.702014a30.296639 30.296639 0 0 1-21.491634-8.9049l-107.458167-107.472438a30.396533 30.396533 0 0 1 42.983267-42.983267l107.458167 107.472438a30.396533 30.396533 0 0 1-21.491633 51.888167zM552.955958 705.613424a30.296639 30.296639 0 0 1-21.491634-8.9049l-85.966533-85.980805a30.396533 30.396533 0 0 1 42.983267-42.983267L574.447591 653.725257a30.396533 30.396533 0 0 1-21.491633 51.888167zM252.044548 791.594228a30.296639 30.296639 0 0 1-21.491633-8.9049l-64.474901-64.489171a30.396533 30.396533 0 0 1 42.983267-42.983267l64.474901 64.489171a30.396533 30.396533 0 0 1-21.491634 51.888167z" fill="" p-id="3535"></path></svg>